<svg xmlns="http://www.w3.org/2000/svg" width="52.898" height="32.642" viewBox="0 0 52.898 32.642">
  <g id="Group_325" data-name="Group 325" transform="translate(0)">
    <path id="Path_320" data-name="Path 320" d="M26.451,32.641C11.291,32.641.716,17.826.276,17.194a1.517,1.517,0,0,1,0-1.744C.716,14.818,11.291,0,26.451,0S52.179,14.818,52.622,15.45a1.517,1.517,0,0,1,0,1.744c-.444.632-11.016,15.448-26.172,15.448M3.429,16.322C5.887,19.408,14.882,29.6,26.451,29.6s20.561-10.2,23.018-13.282C47.011,13.235,38.019,3.037,26.451,3.037S5.887,13.235,3.429,16.322" transform="translate(0 0.001)" fill="#ee9134"/>
    <path id="Path_321" data-name="Path 321" d="M15.4,21.892a9.969,9.969,0,1,1,9.97-9.967,9.983,9.983,0,0,1-9.97,9.967m0-16.9a6.931,6.931,0,1,0,6.933,6.933A6.942,6.942,0,0,0,15.4,4.992" transform="translate(11.053 3.985)" fill="#ee9134"/>
    <path id="Path_322" data-name="Path 322" d="M11.994,12.288A4.9,4.9,0,0,1,7.747,4.942a1.518,1.518,0,1,1,2.631,1.516,1.9,1.9,0,0,0-.246.93A1.862,1.862,0,0,0,11.994,9.25a1.519,1.519,0,1,1,0,3.038" transform="translate(14.456 8.522)" fill="#ee9134"/>
  </g>
</svg>
