<svg xmlns="http://www.w3.org/2000/svg" width="46.003" height="46.003" viewBox="0 0 46.003 46.003">
  <g id="Group_335" data-name="Group 335" transform="translate(-4530 -3100.717)">
    <path id="Path_392" data-name="Path 392" d="M23,46.5c-.46,0-.758-.358-.762-.906l0-1.232q0-.517,0-1.037a.852.852,0,0,0-.087-.361l-.007-.013-.161-.412-.441-.039A19.149,19.149,0,0,1,4,24.914l-.058-.653H3.284c-.215,0-.429,0-.643-.006s-.435-.007-.65-.007c-.323,0-.591.007-.842.025-.052,0-.1.006-.154.006A.978.978,0,0,1,0,23.707v-.425a.973.973,0,0,1,.995-.569c.049,0,.1,0,.153.006.252.016.516.023.833.023.22,0,.435,0,.644-.007.186,0,.367-.006.538-.006h.611l.1-.6C5.529,11.806,11.338,6,21.631,4.371l.605-.095V3.664c0-.183,0-.372.006-.566.009-.471.016-.957-.016-1.457A1.029,1.029,0,0,1,22.789.493h.425a1.034,1.034,0,0,1,.566,1.149c-.033.493-.026.992-.017,1.473,0,.215.007.433.007.657v.655l.652.058A19.155,19.155,0,0,1,42.007,22.076l.058.653h2.986c.223,0,.948.057.951.761a.692.692,0,0,1-.193.512,1.037,1.037,0,0,1-.74.259h-3l-.058.653A19.15,19.15,0,0,1,24.422,42.5l-.653.058v1.414c0,.551,0,1.092,0,1.632s-.3.892-.765.892Zm.012-8.452a.8.8,0,0,1,.758.881q0,.436,0,.873v1.175l.771-.06a17.206,17.206,0,0,0,11.1-5.325A16.944,16.944,0,0,0,40.4,25.016l.041-.755H38.487a1.03,1.03,0,0,1-.743-.268.68.68,0,0,1-.193-.5c.007-.556.477-.758.915-.761h2.006l-.055-.768a17.124,17.124,0,0,0-5.131-10.923A16.928,16.928,0,0,0,24.53,6.09l-.762-.049V6.8c0,.135,0,.271,0,.4q0,.439,0,.874a.771.771,0,1,1-1.53,0c0-.291,0-.583,0-.874,0-.135,0-.271,0-.406V6.042l-.762.049A16.972,16.972,0,0,0,10.41,11.352,16.621,16.621,0,0,0,5.626,21.985l-.031.745h1.94c.553,0,.912.3.918.761a.677.677,0,0,1-.193.5,1.03,1.03,0,0,1-.743.268h-2l.064.775a17.305,17.305,0,0,0,5.491,11.249A16.757,16.757,0,0,0,21.487,40.88l.749.033V39.772c0-.282,0-.563,0-.845a.789.789,0,0,1,.758-.883Z" transform="translate(4530 3100.224)" fill="#ee9134"/>
    <path id="Path_393" data-name="Path 393" d="M18.546,28.348a8.853,8.853,0,0,1-6.219-2.583,9.375,9.375,0,0,1-2.81-6.317,8.868,8.868,0,0,1,2.368-6.416,9.353,9.353,0,0,1,6.544-3.025C18.552,10,18.677,10,18.8,10a8.875,8.875,0,0,1,6.231,2.573A9.42,9.42,0,0,1,27.846,18.9,8.821,8.821,0,0,1,25.5,25.287a9.392,9.392,0,0,1-6.57,3.053c-.128.006-.259.009-.387.009m.119-16.815A7.674,7.674,0,0,0,11.042,19.1a7.541,7.541,0,0,0,2.166,5.389,7.642,7.642,0,0,0,5.411,2.327h.092a7.661,7.661,0,0,0,7.611-7.591,7.672,7.672,0,0,0-7.6-7.69Z" transform="translate(4534.321 3104.545)" fill="#ee9134"/>
  </g>
</svg>
