<svg id="Group_327" data-name="Group 327" xmlns="http://www.w3.org/2000/svg" width="29.553" height="47.878" viewBox="0 0 29.553 47.878">
  <path id="Path_324" data-name="Path 324" d="M10.041,87.012a1.54,1.54,0,0,1-.671-.155,1.523,1.523,0,0,1-.8-1.75l4.615-17.583H5.153a1.517,1.517,0,0,1-1.476-1.88L9.914,40.291a1.512,1.512,0,0,1,1.473-1.157H29.979a1.519,1.519,0,0,1,1.328,2.254l-8.12,14.646h8.479a1.521,1.521,0,0,1,1.364.851,1.5,1.5,0,0,1-.161,1.6L11.241,86.422a1.519,1.519,0,0,1-1.2.589M7.091,64.485h8.06a1.525,1.525,0,0,1,1.473,1.9L13.4,78.669l15.171-19.6H20.61a1.519,1.519,0,0,1-1.328-2.254L27.4,42.172H12.578Z" transform="translate(-3.634 -39.134)" fill="#ee9134"/>
</svg>
