<svg xmlns="http://www.w3.org/2000/svg" xmlns:xlink="http://www.w3.org/1999/xlink" width="18.402" height="18.401" viewBox="0 0 18.402 18.401">
  <defs>
    <clipPath id="clip-path">
      <rect id="Rectangle_1526" data-name="Rectangle 1526" width="18.402" height="18.402" transform="translate(0 0)" fill="#ee9134"/>
    </clipPath>
  </defs>
  <g id="Group_372" data-name="Group 372" transform="translate(0 0)">
    <g id="Group_371" data-name="Group 371" transform="translate(0 0)" clip-path="url(#clip-path)">
      <path id="Path_420" data-name="Path 420" d="M9.64,0A8.763,8.763,0,0,0,1.912,12.9L0,18.4l5.485-1.923A8.763,8.763,0,1,0,9.64,0m5,11.572a2.243,2.243,0,0,1-2.115,1.571c-1.405,0-3.131-1.109-4.644-2.622S5.259,7.284,5.259,5.878a2.243,2.243,0,0,1,1.57-2.114c.44-.064.63.27.771.475s.94,1.438,1.065,1.628a.756.756,0,0,1-.2,1.022c-.454.367-.9.509.821,2.228s1.86,1.275,2.228.821a.755.755,0,0,1,1.021-.2c.19.124,1.422.925,1.627,1.065s.54.331.477.771" transform="translate(0 -0.001)" fill="#ee9134"/>
    </g>
  </g>
</svg>
