<svg xmlns="http://www.w3.org/2000/svg" width="47.436" height="47.449" viewBox="0 0 47.436 47.449">
  <g id="Group_331" data-name="Group 331" transform="translate(-4816.227 -3100)">
    <path id="Path_344" data-name="Path 344" d="M226.313,0a3.515,3.515,0,0,1,.57.455q3.8,4.547,7.594,9.107c.257.308.48.612.284,1.04-.207.449-.6.471-1.018.468-.938-.006-1.875,0-2.867,0V46.231c0,1.024-.191,1.216-1.209,1.216q-3.521,0-7.041,0c-1.043,0-1.226-.186-1.226-1.248V11.069h-3.076a.8.8,0,0,1-.8-.448.81.81,0,0,1,.176-.937q1.366-1.634,2.729-3.274,2.446-2.934,4.9-5.867A5.349,5.349,0,0,1,225.943,0Zm-6.327,9.415a.724.724,0,0,0,.154.06c.54,0,1.081.007,1.62.009,1.014,0,1.217.205,1.217,1.222V45.847H229.3V10.72c0-1.036.2-1.236,1.255-1.236h1.8l-6.212-7.456-6.155,7.387" transform="translate(4628.827 3100)" fill="#ee9134"/>
    <path id="Path_345" data-name="Path 345" d="M196.788,22.485l7.882-9.447c.576-.692,1.044-.7,1.616-.017q3.783,4.531,7.56,9.067a.844.844,0,0,1-.7,1.5c-.954-.007-1.908,0-2.922,0V40.643c0,.887-.233,1.117-1.126,1.117q-3.587,0-7.176,0c-.966,0-1.174-.2-1.174-1.156q0-8.2,0-16.394v-.63H199.54c-.556,0-1.113-.02-1.667.006a1.093,1.093,0,0,1-1.085-.545Zm8.7-7.958L199.264,22h.681c2.532,0,2.393-.236,2.388,2.41q-.011,7.6,0,15.2v.545h6.317V23.08c0-.839.236-1.078,1.065-1.081.625,0,1.251,0,2,0l-6.224-7.472" transform="translate(4619.439 3105.687)" fill="#ee9134"/>
    <path id="Path_346" data-name="Path 346" d="M200.772,0V2.356h2.3V3.95h-2.3V6.279h-1.593V3.985h-2.387V2.41c.662-.01,1.325-.035,1.987-.025.3,0,.4-.095.4-.4-.01-.663.015-1.325.025-1.988Z" transform="translate(4619.439 3100)" fill="#ee9134"/>
    <path id="Path_347" data-name="Path 347" d="M211.417,22.4c-.528-2.368-.065-3.879,1.5-4.9a3.971,3.971,0,0,1,4.519.143c1.443,1.084,1.881,2.689,1.281,4.759.156.047.313.092.468.141a3.1,3.1,0,0,1,2.2,2.9c.023,1.591,0,3.181.012,4.772a.77.77,0,0,1-.535.831c-.951.268-1.1.892-1.071,1.8.074,1.975.025,3.953.022,5.93,0,.743-.265,1.014-.993,1.014q-3.753,0-7.5,0c-.705,0-.973-.273-.975-.986,0-2.27-.007-4.541.007-6.811a.563.563,0,0,0-.367-.6c-1.347-.647-1.22-.493-1.222-1.981,0-1.127.049-2.257-.012-3.382a3.3,3.3,0,0,1,2.67-3.629m6.816,15.789c0-2.1.06-4.158-.025-6.208-.044-1.036.243-1.694,1.249-1.99a.475.475,0,0,0,.362-.548c-.017-1.265,0-2.531-.009-3.8a1.581,1.581,0,0,0-1.639-1.68c-.369-.012-.742.017-1.11-.017a.764.764,0,0,1-.532-1.247c.1-.135.236-.246.345-.374a2.325,2.325,0,0,0,.243-2.717,2.36,2.36,0,0,0-4.378.845,2.3,2.3,0,0,0,.742,2.09.8.8,0,0,1-.6,1.418c-.262-.007-.525,0-.787,0a1.6,1.6,0,0,0-1.754,1.751c0,1.049.049,2.1-.017,3.148-.047.711.132,1.162.846,1.37.592.173.767.611.759,1.216-.025,2.083-.01,4.167-.01,6.25v.489Z" transform="translate(4624.871 3107.663)" fill="#ee9134"/>
    <path id="Path_348" data-name="Path 348" d="M220.555,17.6v3.92h-1.584V19.234c0-.726,0-1.45,0-2.176,0-.775.257-1.036,1.018-1.04.641,0,1.284,0,2.045,0-2.108-2.531-4.145-4.976-6.221-7.47-2.071,2.486-4.107,4.932-6.221,7.47.765,0,1.42,0,2.074,0,.708,0,.985.275.988.977,0,1.5,0,2.992,0,4.519h-1.575V17.6h-1.914c-.371,0-.742,0-1.111,0a.844.844,0,0,1-.868-.489.818.818,0,0,1,.208-.931l4.269-5.121q1.706-2.046,3.412-4.09a.841.841,0,0,1,1.466-.012q3.842,4.6,7.68,9.211a.831.831,0,0,1,.2.973.873.873,0,0,1-.887.46c-.972-.007-1.943,0-2.985,0" transform="translate(4624.132 3102.969)" fill="#ee9134"/>
    <path id="Path_349" data-name="Path 349" d="M208.907,9.02h-1.578V6.669H204.96V5.09h2.329V2.751h1.593v2.3h2.33v1.59h-2.3Z" transform="translate(4623.153 3101.25)" fill="#ee9134"/>
    <rect id="Rectangle_1498" data-name="Rectangle 1498" width="1.52" height="1.517" transform="translate(4843.135 3100.838)" fill="#ee9134"/>
    <rect id="Rectangle_1500" data-name="Rectangle 1500" width="1.519" height="1.516" transform="translate(4817.056 3115.864)" fill="#ee9134"/>
    <path id="Path_350" data-name="Path 350" d="M214.491,27H212.9c0-.707-.028-1.4.01-2.086a.7.7,0,0,0-.522-.832,5.092,5.092,0,0,1-.621-.308l.714-1.446a1.641,1.641,0,0,0,2.413-.016l.729,1.454a6.1,6.1,0,0,0-.825.444.751.751,0,0,0-.3.481c-.031.765-.013,1.532-.013,2.308" transform="translate(4626.249 3110.143)" fill="#ee9134"/>
  </g>
</svg>
