<svg xmlns="http://www.w3.org/2000/svg" width="55.263" height="47.693" viewBox="0 0 55.263 47.693">
  <g id="Group_328" data-name="Group 328" transform="translate(-4987.716 -3100.457)">
    <path id="Path_386" data-name="Path 386" d="M349.431,35.743h-4.183c-1.024,0-1.485-.455-1.5-1.475-.013-1.488-.2-1.676-1.692-1.677-1.965,0-3.169-.723-3.681-2.211a5.075,5.075,0,0,1-.217-1.437c-.025-.71-.02-1.437-.014-2.141,0-.308,0-.611,0-.915v-.32s-.46-.106-.528-.121c-.138-.032-.262-.06-.385-.092a2,2,0,0,1-1.414-2.49l.013-.045a.847.847,0,0,1,.028-.1,30.8,30.8,0,0,0,2.177-7.2q.107-.5.214-.995a9.219,9.219,0,0,1,7.418-7.412,14.287,14.287,0,0,1,3.3-.387,15.235,15.235,0,0,1,2.092.147c.719.1.838.42.861.688a.629.629,0,0,1-.15.483.8.8,0,0,1-.6.228,1.193,1.193,0,0,1-.173-.012,14.665,14.665,0,0,0-1.958-.134,13.82,13.82,0,0,0-3.078.348,7.842,7.842,0,0,0-6.369,6.375c-.1.438-.186.877-.278,1.316-.23,1.105-.465,2.249-.771,3.353a21.421,21.421,0,0,1-.832,2.3l-.01.025c-.128.316-.26.641-.385.966-.132.348-.257.675-.065.956s.547.282.892.285h.384c.816,0,1,.2,1.008,1.028q0,1.1,0,2.2v.25c0,.423,0,.845,0,1.268,0,1.687.724,2.409,2.413,2.412h1.146a1.884,1.884,0,0,1,2.038,2.032c0,.129,0,.259,0,.4v.685h8.8V31.438q0-1.529,0-3.057a2.233,2.233,0,0,1,.972-1.927c3.021-2.173,4.33-5.345,4-9.7a11.586,11.586,0,0,0-.512-2.353c-.058-.195-.115-.388-.167-.582-.067-.241-.167-.825.349-1.027a.749.749,0,0,1,.282-.055.666.666,0,0,1,.636.5c.221.688.4,1.411.57,2.109l.013.054c.063.255.125.509.191.762.029.116.051.241.073.364.009.052.019.1.028.156v2.442c-.041.215-.079.436-.118.659-.086.495-.173,1-.287,1.478a10.212,10.212,0,0,1-4.045,6.151,1.361,1.361,0,0,0-.609,1.2c.013,1.7.01,3.428.007,5.1v.48c0,1.082-.464,1.545-1.548,1.545h-4.353" transform="translate(4682.595 3103.057)" fill="#ee9134"/>
    <path id="Path_387" data-name="Path 387" d="M325.569,35.75q-2.234,0-4.468,0a1.249,1.249,0,0,1-1.337-1.367c-.013-1.959-.013-3.872,0-5.684a1.459,1.459,0,0,0-.637-1.3,10.471,10.471,0,0,1-4.3-7.62,11.713,11.713,0,0,1,.889-6.829,10.728,10.728,0,0,1,8.429-6.064,13.957,13.957,0,0,1,2.132-.167,13.038,13.038,0,0,1,5.053,1.018,8.947,8.947,0,0,1,5.457,6.589c.137.586.263,1.188.387,1.77.2.947.4,1.924.662,2.878a17.438,17.438,0,0,0,1.142,3.085,2.6,2.6,0,0,1,.134,2.292,2.406,2.406,0,0,1-1.841,1.162l-.332.06v.336c0,.294,0,.588-.007.883v.029c-.007.669-.016,1.361.016,2.049a3.588,3.588,0,0,1-.95,2.689,3.447,3.447,0,0,1-2.525,1.056c-.08,0-.163,0-.246-.007l-.189-.015c-.176-.013-.353-.028-.532-.028a1.352,1.352,0,0,0-.924.263c-.316.275-.284.765-.257,1.2a3.859,3.859,0,0,1,.014.4,1.233,1.233,0,0,1-1.322,1.325q-2.225.007-4.448.006m.3-27.627A9.9,9.9,0,0,0,320.116,9.9a8.925,8.925,0,0,0-4.006,7.444c-.113,4.142,1.246,7.15,4.157,9.2a2.157,2.157,0,0,1,.88,1.856v5.939h8.8v-.665c0-.169,0-.324,0-.48a1.868,1.868,0,0,1,1.985-1.977c.145,0,.292,0,.439,0l.755,0c1.693,0,2.416-.723,2.417-2.407,0-.4,0-.791,0-1.188V27.5c0-.847,0-1.721.006-2.579.007-.644.233-.864.892-.874h.486c.368,0,.714,0,.9-.284s.067-.6-.064-.948c-.125-.327-.259-.657-.388-.977l-.006-.016a22.087,22.087,0,0,1-.848-2.343c-.291-1.052-.518-2.147-.736-3.206-.1-.487-.2-.979-.308-1.463a7.521,7.521,0,0,0-4.739-5.8,14.092,14.092,0,0,0-3.431-.8,12.266,12.266,0,0,0-1.444-.087" transform="translate(4673.025 3103.052)" fill="#ee9134"/>
    <path id="Path_388" data-name="Path 388" d="M347.657,6.775a.591.591,0,0,1-.607-.323c-.14-.25-.2-.473.332-1.069l.3-.339-.375-.259a16.192,16.192,0,0,0-4.678-2.241,19.767,19.767,0,0,0-5.483-.815,17.9,17.9,0,0,0-10.76,3.715l-.076.057a2.278,2.278,0,0,1-.473.3.569.569,0,0,1-.209.038.694.694,0,0,1-.6-.368.631.631,0,0,1,.218-.879q.41-.275.819-.557a19.977,19.977,0,0,1,2.826-1.721,20.3,20.3,0,0,1,8.534-2,19.814,19.814,0,0,1,10.522,3.214c.052.033.106.065.17.1l.463.272.2-.368c.349-.646.646-.646.745-.646a.614.614,0,0,1,.132.015c.263.054.5.16.585.86.067.595.121,1.174.157,1.724a.716.716,0,0,1-.646.889c-.358.086-.727.16-1.085.234l-.035.007-.474.1a2.473,2.473,0,0,1-.5.061" transform="translate(4677.681 3100.143)" fill="#ee9134"/>
    <path id="Path_389" data-name="Path 389" d="M338,35.127a20.249,20.249,0,0,1-10.485-3.15l-.214-.132-.5-.305-.209.342a2.111,2.111,0,0,0-.106.2c-.016.032-.035.073-.049.1l-.112.057a1.883,1.883,0,0,1-.7.255H325.6c-.241-.009-.413-.2-.449-.516-.07-.589-.156-1.366-.2-2.153a.653.653,0,0,1,.564-.743c.388-.1.787-.176,1.172-.255l.041-.009c.18-.036.359-.074.538-.112a2.06,2.06,0,0,1,.413-.049.625.625,0,0,1,.625.34c.132.247.191.48-.342,1.033l-.332.343.4.268q.087.059.17.118c.121.083.243.169.374.249a17.941,17.941,0,0,0,20.369-1c.038-.029.076-.058.112-.089.084-.065.17-.134.252-.185a.769.769,0,0,1,.413-.124.662.662,0,0,1,.531.256.623.623,0,0,1-.067.911,16.826,16.826,0,0,1-2.134,1.507A20.408,20.408,0,0,1,338,35.127" transform="translate(4677.686 3113.022)" fill="#ee9134"/>
    <path id="Path_390" data-name="Path 390" d="M349.7,9.6a.7.7,0,0,1-.676-.684.676.676,0,0,1,.662-.685h.029a.68.68,0,0,1,.691.671.705.705,0,0,1-.691.7Z" transform="translate(4688.629 3103.742)" fill="#ee9134"/>
  </g>
</svg>
