<svg xmlns="http://www.w3.org/2000/svg" width="47.14" height="48.41" viewBox="0 0 47.14 48.41">
  <g id="Group_329" data-name="Group 329" transform="translate(-4929.833 -3100.098)">
    <path id="Path_331" data-name="Path 331" d="M281.441,43.553a2.025,2.025,0,0,1-1.245-2.19c.055-1.638.014-3.278.014-4.916,0-1.405.569-1.988,1.958-2.013.106,0,.212-.013.42-.026-.16-.195-.262-.34-.385-.465-.556-.56-1.119-1.11-1.674-1.668-.387-.39-.426-.807-.118-1.117s.726-.268,1.12.116c.6.585,1.209,1.155,1.769,1.774a9.268,9.268,0,0,1,.71,1.1c.077.112.2.275.305.275,1.635.017,3.271.013,4.966.013V33.316c0-.992,0-1.985,0-2.977a2.787,2.787,0,0,0-.823-2.048q-3.334-3.321-6.666-6.638c-.314-.316-.515-.249-.755.07a2.219,2.219,0,0,0,.247,2.966c.873.887,1.764,1.757,2.647,2.634.079.079.16.153.233.236a.721.721,0,0,1,.039,1.018.7.7,0,0,1-1.049-.028c-.356-.335-.7-.687-1.041-1.031-.614-.611-1.236-1.216-1.843-1.836a3.632,3.632,0,0,1-.714-4.266,1.45,1.45,0,0,0,.141-.582c.01-1.907.019-3.814,0-5.721a2.67,2.67,0,0,0-2.518-2.782c-.593-.025-.861.207-.861.79q-.007,5.886,0,11.771a2.873,2.873,0,0,0,.881,2.074c.576.583,1.164,1.155,1.741,1.737.393.4.428.8.111,1.116s-.711.278-1.117-.121c-.595-.586-1.191-1.171-1.773-1.77a4.208,4.208,0,0,1-1.26-3.015c-.007-3.972-.015-7.943,0-11.914.006-1.463,1.222-2.326,2.8-2.044a4.03,4.03,0,0,1,3.367,3.692c.081,1.414.035,2.836.044,4.253,0,.346,0,.692,0,1.12,1.059-.18,1.6.573,2.223,1.188,1.969,1.953,3.923,3.921,5.907,5.859a4.576,4.576,0,0,1,1.453,3.508c-.02,1.26,0,2.519,0,3.863.223,0,.419-.01.615,0a1.594,1.594,0,0,1,1.59,1.606c.022,1.955.01,3.908.006,5.863a1.747,1.747,0,0,1-1.257,1.645Zm5.105-1.418c1.481,0,2.961-.013,4.442.009.4,0,.516-.141.513-.522-.013-1.748-.017-3.5,0-5.246,0-.429-.16-.531-.557-.528q-4.394.017-8.79,0c-.415,0-.543.137-.538.547.02,1.734.023,3.466,0,5.2-.006.455.161.559.58.553,1.449-.022,2.9-.009,4.348-.009" transform="translate(4654.938 3104.955)" fill="#ee9134"/>
    <path id="Path_332" data-name="Path 332" d="M296.178,43.553a1.946,1.946,0,0,1-1.276-2.119c.051-1.668.013-3.34.014-5.011,0-1.38.538-1.933,1.929-1.99.077,0,.153-.017.285-.032,0-.543,0-1.073,0-1.6.012-1.024-.013-2.049.055-3.069a3.8,3.8,0,0,1,1.2-2.454q3.382-3.371,6.769-6.734A1.893,1.893,0,0,1,306.713,20c0-.337-.01-.649,0-.957.02-.486.291-.793.692-.8.417-.012.7.305.72.815.009.237,0,.473,0,.71a5.772,5.772,0,0,0,.319,2.16,3.284,3.284,0,0,1-.746,3.593c-.966,1.039-2,2.016-3.006,3.009a.7.7,0,0,1-1.049.064.714.714,0,0,1,.071-1.082c.944-.95,1.907-1.882,2.845-2.838a2.2,2.2,0,0,0,.244-2.926c-.3-.406-.428-.423-.777-.076q-3.321,3.3-6.638,6.6a2.5,2.5,0,0,0-.815,1.71c-.038,1.462-.012,2.925-.012,4.454h.525c1.386,0,2.774-.007,4.16.006a.564.564,0,0,0,.625-.393,4.247,4.247,0,0,1,.835-1.183q2.828-2.856,5.7-5.667a3.471,3.471,0,0,0,1.114-2.649c-.022-3.751-.007-7.5-.009-11.252,0-.822-.252-1.044-1.065-.953a2.655,2.655,0,0,0-2.269,2.214c-.051.372-.032.755-.067,1.13a.64.64,0,0,1-.679.643.648.648,0,0,1-.7-.57,4.178,4.178,0,0,1,4.39-4.838,2.079,2.079,0,0,1,1.795,1.853c.013.173.013.346.013.519,0,3.751-.016,7.5.009,11.252a4.8,4.8,0,0,1-1.511,3.632c-1.9,1.862-3.783,3.75-5.67,5.629-.164.164-.316.342-.576.627.34,0,.551-.007.759,0a1.634,1.634,0,0,1,1.673,1.725c.009,1.734-.036,3.468.017,5.2a2.021,2.021,0,0,1-1.245,2.19Zm5.053-1.418c1.481,0,2.961-.013,4.442.009.42.006.541-.138.537-.547q-.026-2.6,0-5.2c0-.4-.109-.556-.531-.554q-4.42.022-8.838,0c-.4,0-.516.137-.513.522q.024,2.622,0,5.246c-.006.428.156.532.556.527,1.449-.019,2.9-.007,4.347-.007" transform="translate(4664.03 3104.955)" fill="#ee9134"/>
    <path id="Path_333" data-name="Path 333" d="M294.718,6.026A11.654,11.654,0,1,1,283.2,19.572a.733.733,0,0,1,.559-.937c.42-.071.733.189.836.692a9.995,9.995,0,0,0,7.8,8.3,10.228,10.228,0,1,0-7.719-12.037c-.032.169-.057.342-.1.511a.72.72,0,0,1-.809.621.692.692,0,0,1-.577-.877,21.385,21.385,0,0,1,1.047-3.267,11.529,11.529,0,0,1,10.474-6.55" transform="translate(4658.698 3102.739)" fill="#ee9134"/>
    <path id="Path_334" data-name="Path 334" d="M286.183,8.953a4.64,4.64,0,0,1-.618.817,2.975,2.975,0,0,1-.9.508,3.482,3.482,0,0,0-2.057,2.061,5.528,5.528,0,0,1-.407.745,1.051,1.051,0,0,1-1.924.009c-.286-.489-.577-.977-.816-1.489a1.929,1.929,0,0,0-.977-.963c-.512-.241-1.005-.521-1.494-.8a1.02,1.02,0,0,1,0-1.881,5.99,5.99,0,0,0,3.325-3.306,1.018,1.018,0,0,1,1.856-.017,13.622,13.622,0,0,1,.791,1.45,2.127,2.127,0,0,0,1.11,1.085c.5.234.97.519,1.453.788a1.355,1.355,0,0,1,.657,1M281.3,11.959a4.3,4.3,0,0,1,3-3.027,9.617,9.617,0,0,1-1.92-1.165,9.979,9.979,0,0,1-1.209-1.943,4.4,4.4,0,0,1-2.98,3.021,9.738,9.738,0,0,1,1.911,1.169,9.922,9.922,0,0,1,1.2,1.945" transform="translate(4655.607 3101.837)" fill="#ee9134"/>
    <path id="Path_335" data-name="Path 335" d="M304.022,13.7a1.028,1.028,0,0,1-.963-.569,9.325,9.325,0,0,1-.585-1.079,2.946,2.946,0,0,0-1.689-1.662,8.044,8.044,0,0,1-1.079-.582,1.009,1.009,0,0,1,.016-1.828,6.07,6.07,0,0,0,3.361-3.334,1.021,1.021,0,0,1,1.859,0,1.22,1.22,0,0,1,.138.247,4.9,4.9,0,0,0,2.967,2.938,1.1,1.1,0,0,1,0,2.121,5.039,5.039,0,0,0-3.017,3.022,1.045,1.045,0,0,1-1.007.729m3.053-4.756a9.915,9.915,0,0,1-1.94-1.19,9.94,9.94,0,0,1-1.2-1.936,4.525,4.525,0,0,1-2.948,3.081,4.764,4.764,0,0,1,3.021,2.979,4.51,4.51,0,0,1,3.066-2.934" transform="translate(4665.954 3101.837)" fill="#ee9134"/>
    <path id="Path_336" data-name="Path 336" d="M292.314,19.552a3.847,3.847,0,0,1-3.8-3.092c-.111-.633.058-1.008.5-1.105.464-.1.765.177.9.836a2.433,2.433,0,0,0,4.685.294c.055-.163.08-.336.122-.5a.7.7,0,1,1,1.386.224,3.8,3.8,0,0,1-3.261,3.3c-.2.023-.407.033-.527.044" transform="translate(4661.111 3106.969)" fill="#ee9134"/>
    <path id="Path_337" data-name="Path 337" d="M289,14.114a2.752,2.752,0,0,1-1.86-.705.709.709,0,1,1,.9-1.092,1.319,1.319,0,0,0,1.84.009.722.722,0,0,1,1.05.063.741.741,0,0,1-.167,1.046,2.653,2.653,0,0,1-1.763.681" transform="translate(4660.37 3105.513)" fill="#ee9134"/>
    <path id="Path_338" data-name="Path 338" d="M294.546,14.113a2.683,2.683,0,0,1-1.83-.719.708.708,0,1,1,.9-1.1,1.325,1.325,0,0,0,1.876.012.723.723,0,0,1,1.018.055.732.732,0,0,1-.132,1.049,2.7,2.7,0,0,1-1.828.7" transform="translate(4662.913 3105.513)" fill="#ee9134"/>
    <path id="Path_339" data-name="Path 339" d="M290.612,1.94c0-.361-.01-.721,0-1.082.017-.49.284-.783.691-.791a.7.7,0,0,1,.716.765q.026,1.13,0,2.259a.686.686,0,0,1-.713.761c-.419-.006-.675-.284-.694-.783-.015-.375,0-.752,0-1.129" transform="translate(4662.08 3100.031)" fill="#ee9134"/>
    <path id="Path_340" data-name="Path 340" d="M284.209,4.063a2.363,2.363,0,0,1,.391.109c.724.409,1.454.81,2.166,1.242a.656.656,0,0,1,.237.911.673.673,0,0,1-.932.294c-.733-.391-1.454-.812-2.164-1.244a.6.6,0,0,1-.233-.828c.118-.217.383-.353.535-.484" transform="translate(4658.892 3101.847)" fill="#ee9134"/>
    <path id="Path_341" data-name="Path 341" d="M299.669,4.969a1.59,1.59,0,0,1-.378.447c-.652.407-1.324.785-2,1.153a.7.7,0,0,1-.991-.23.692.692,0,0,1,.269-.976c.673-.4,1.353-.8,2.045-1.169.525-.279,1.073.057,1.055.775" transform="translate(4664.62 3101.862)" fill="#ee9134"/>
    <path id="Path_342" data-name="Path 342" d="M289.184,4.055c-.119.131-.268.429-.486.493a.83.83,0,0,1-.745-.179,19.025,19.025,0,0,1-1.341-2.317c-.084-.175.09-.575.266-.755a.546.546,0,0,1,.841.054c.515.784.958,1.616,1.427,2.429a1.208,1.208,0,0,1,.038.275" transform="translate(4660.254 3100.512)" fill="#ee9134"/>
    <path id="Path_343" data-name="Path 343" d="M294.667,4.612c-.64-.015-.992-.516-.759-.964.391-.752.82-1.484,1.27-2.2a.633.633,0,0,1,.915-.192.623.623,0,0,1,.281.889c-.394.73-.812,1.452-1.257,2.153-.109.173-.361.256-.449.316" transform="translate(4663.546 3100.518)" fill="#ee9134"/>
  </g>
</svg>
