<svg xmlns="http://www.w3.org/2000/svg" width="48.411" height="41.729" viewBox="0 0 48.411 41.729">
  <g id="Group_332" data-name="Group 332" transform="translate(-4756.54 -3103.415)">
    <path id="Path_351" data-name="Path 351" d="M204.162,33.847a1.229,1.229,0,0,1-1.108.468c-1.78-.019-3.561-.006-5.341-.009a1.387,1.387,0,0,1-1.587-1.594q0-6.05,0-12.1V20c-.956,0-1.866-.032-2.774.009a4.3,4.3,0,0,1-2.541-.692c-2.762-1.7-5.558-3.342-8.333-5.021a3.248,3.248,0,0,0-1.786-.5c-1.843.023-3.687.017-5.53,0a2.2,2.2,0,0,0-1.9.945c-1.174,1.581-2.366,3.149-3.545,4.726a1.98,1.98,0,1,0,3.133,2.414c.909-1.148,1.8-2.313,2.705-3.463a2.2,2.2,0,0,1,3.1-.553q6.984,4.333,13.957,8.679a2.635,2.635,0,0,1,1.337,2.8,2.532,2.532,0,0,1-1.869,2.16,8.409,8.409,0,0,1-1.363.186,2.827,2.827,0,0,1-1.132,2.042,2.873,2.873,0,0,1-2.413.429,2.826,2.826,0,0,1-1.263,2.172,2.768,2.768,0,0,1-2.46.275c-.036.134-.065.236-.09.339a2.713,2.713,0,0,1-3.8,1.868c-.387-.177-.772-.355-1.155-.54a.793.793,0,0,1-.483-1.114c.044-.135.106-.262.163-.393a1.04,1.04,0,0,0-.387-1.363,1.027,1.027,0,0,0-1.408.343c-.193.268-.369.547-.55.825-.444.685-.371,1.059.2,1.664a1.011,1.011,0,0,1,.247.781.9.9,0,0,1-.57.525.936.936,0,0,1-.682-.205,2.517,2.517,0,0,1-.641-3.3c.223-.38.487-.735.716-1.111A1.037,1.037,0,1,0,173.27,33.8c-.209.3-.406.6-.6.908a1.068,1.068,0,0,0,.221,1.513c.141.135.335.336.32.489a1.342,1.342,0,0,1-.317.768c-.243.249-.576.17-.868-.02a2.553,2.553,0,0,1-.758-3.357c.218-.383.484-.736.716-1.111a1.04,1.04,0,1,0-1.732-1.143c-.189.272-.367.55-.545.829a1.051,1.051,0,0,0,.207,1.581c.5.471.4,1.2-.214,1.334a1.05,1.05,0,0,1-.736-.17,2.513,2.513,0,0,1-.676-3.328c.214-.367.467-.71.691-1.071a1.048,1.048,0,0,0-.241-1.5,1.032,1.032,0,0,0-1.478.345c-.2.282-.388.575-.573.867a1.04,1.04,0,0,0,.217,1.542c.035.032.074.06.106.095a.724.724,0,0,1,.083.988.714.714,0,0,1-1.008.183,2.512,2.512,0,0,1-1.153-2.01c-.012-.154,0-.308,0-.486h-1.142c0,.548,0,1.108,0,1.668,0,1.091-.5,1.6-1.58,1.6q-2.718,0-5.437,0a2.265,2.265,0,0,1-.33-.01.756.756,0,0,1-.688-.813.734.734,0,0,1,.807-.685c1.417-.007,2.836,0,4.253,0,.47,0,.938,0,1.433,0V18.053h-5.419c-.111,0-.221.006-.33,0a.751.751,0,0,1-.745-.759.722.722,0,0,1,.751-.743c2.017-.009,4.033-.015,6.051.006a1.28,1.28,0,0,1,1.226,1.216c.016.17,0,.345,0,.561.154.013.289.033.423.033,1.34,0,2.679.015,4.019-.013a.9.9,0,0,0,.612-.3q1.6-2.046,3.153-4.132a3.777,3.777,0,0,1,3.277-1.63q2.742.035,5.483,0a4.509,4.509,0,0,1,2.461.687q4.344,2.629,8.708,5.219a2.224,2.224,0,0,0,1.017.288c1.05.036,2.1.013,3.158.013.015-.116.028-.177.031-.24.044-1.322.438-1.708,1.747-1.708,1.748,0,3.5.012,5.246-.007a1.085,1.085,0,0,1,1.044.483v.569a1.129,1.129,0,0,1-1.052.476c-1.654-.019-3.308-.007-4.961-.007h-.479V32.8h.541c1.654,0,3.308.012,4.961-.009a1.027,1.027,0,0,1,.989.493ZM179.6,37.15c.179.087.333.164.489.237a1.21,1.21,0,0,0,1.654-.41,1.193,1.193,0,0,0-.431-1.644c-.4-.284-.813-.541-1.2-.836a.731.731,0,0,1-.177-1.011.745.745,0,0,1,1-.239c.125.064.239.153.356.228.822.528,1.632,1.073,2.467,1.577a1.2,1.2,0,1,0,1.276-2.042c-.772-.518-1.559-1.011-2.329-1.532a.732.732,0,0,1-.252-1.031.759.759,0,0,1,1.072-.23c.137.077.265.17.4.253,1.111.685,2.217,1.382,3.34,2.046A1.208,1.208,0,0,0,189,32.174a1.239,1.239,0,0,0-.511-1.737c-.527-.346-1.057-.682-1.588-1.023s-1.039-.656-1.548-1a.764.764,0,0,1-.292-1.1.773.773,0,0,1,1.121-.167c.161.1.317.2.477.3,1.28.8,2.551,1.622,3.844,2.4a1.773,1.773,0,0,0,.931.24,1.1,1.1,0,0,0,1.008-.915,1.217,1.217,0,0,0-.678-1.376q-6.914-4.307-13.834-8.6c-.559-.346-.836-.291-1.247.233-.912,1.167-1.809,2.345-2.734,3.5a3.484,3.484,0,0,1-6.206-2.38c.009-.212.026-.426.039-.639h-3.959V29.5c.335,0,.636-.025.931.006a1.339,1.339,0,0,0,1.39-.655,2.515,2.515,0,0,1,4.359.518c.063.141.119.285.182.433a2.657,2.657,0,0,1,2.995,1.98,2.662,2.662,0,0,1,3,1.966,2.63,2.63,0,0,1,2.915,3.4" transform="translate(4600.788 3105.582)" fill="#ee9134"/>
    <path id="Path_352" data-name="Path 352" d="M167.083,4.6a3.809,3.809,0,0,1,.657.4c.769.745,1.526,1.5,2.276,2.268a.773.773,0,0,1,.076,1.165.763.763,0,0,1-1.13-.087c-.774-.762-1.537-1.536-2.308-2.3a.7.7,0,0,1-.192-.895,2.771,2.771,0,0,1,.621-.547" transform="translate(4605.614 3102.091)" fill="#ee9134"/>
    <path id="Path_353" data-name="Path 353" d="M179.664,5.394a3.512,3.512,0,0,1-.378.624c-.756.778-1.526,1.545-2.3,2.307a.759.759,0,1,1-1.073-1.059c.772-.787,1.555-1.561,2.336-2.339a.684.684,0,0,1,.9-.159,2.742,2.742,0,0,1,.518.625" transform="translate(4609.823 3102.119)" fill="#ee9134"/>
    <path id="Path_354" data-name="Path 354" d="M166.71,9.27c.55,0,1.1-.012,1.651,0a.754.754,0,1,1,.015,1.5q-1.673.022-3.348,0a.751.751,0,1,1-.015-1.5c.564-.017,1.132,0,1.7,0Z" transform="translate(4604.635 3104.212)" fill="#ee9134"/>
    <path id="Path_355" data-name="Path 355" d="M173.409,4.89c0,.534.01,1.068,0,1.6a.758.758,0,0,1-.723.826.769.769,0,0,1-.783-.823c-.016-1.1-.015-2.2,0-3.3a.783.783,0,0,1,.758-.851.765.765,0,0,1,.749.847c.012.566,0,1.13,0,1.7" transform="translate(4608.123 3101.067)" fill="#ee9134"/>
    <path id="Path_356" data-name="Path 356" d="M179.79,9.27c.551,0,1.1-.012,1.654,0,.534.015.833.307.825.767a.73.73,0,0,1-.81.735q-1.652.022-3.308,0a.739.739,0,0,1-.825-.769.73.73,0,0,1,.81-.732c.551-.016,1.1,0,1.654,0" transform="translate(4610.593 3104.212)" fill="#ee9134"/>
  </g>
</svg>
