<svg xmlns="http://www.w3.org/2000/svg" width="46.955" height="46.998" viewBox="0 0 46.955 46.998">
  <path id="Path_391" data-name="Path 391" d="M56.893,47.544l-.244-.031c-.215-.028-.432-.055-.647-.08a19.97,19.97,0,0,1-10.643-4.4c-6.051-5.017-8.606-11.454-7.6-19.134A19.76,19.76,0,0,1,44.982,11.03,19.785,19.785,0,0,1,56.57,6.317c1.209-.081,2.455-.083,3.661-.083.551,0,1.123,0,1.684-.009h1.172l.033-.684a5.257,5.257,0,0,1,1.465-3.517,4.978,4.978,0,0,1,3.1-1.457c.159-.015.317-.022.473-.022a4.71,4.71,0,0,1,2.759.889,5.041,5.041,0,0,1,2.173,4.123l.036.679h5.712v5.7l.679.035A4.763,4.763,0,0,1,83.558,14.1a7.357,7.357,0,0,1,.684,1.542c.084.227.169.461.259.692v1.217a1.257,1.257,0,0,0-.068.215,4.9,4.9,0,0,1-3.846,4.025,5.751,5.751,0,0,1-.727.119c-.137.016-.278.033-.42.055l-.612.09v1.873c0,.911,0,1.818,0,2.724a20.019,20.019,0,0,1-2.41,9.857A20.515,20.515,0,0,1,61.961,47.177c-.563.115-1.129.186-1.726.262-.263.033-.527.067-.788.1Zm1.993-1.453.762-.047A19.129,19.129,0,0,0,77.306,28.37l.033-.748H73.1l-.028.685a5.038,5.038,0,0,1-4.73,4.951c-.083.006-.169.009-.252.009a5.06,5.06,0,0,1-5-4.987L63.06,27.7l-.58-.077-.028-.006a1.464,1.464,0,0,0-.241-.023H58.863v6.2c-.348-.127-.688-.246-1.037-.355a3.693,3.693,0,0,0-1.082-.164,3.571,3.571,0,0,0-2.528,1.059,3.546,3.546,0,0,0,2.534,6.027,3.694,3.694,0,0,0,1.092-.167c.353-.111.694-.228,1.043-.355ZM39.024,28.36A19.126,19.126,0,0,0,56.69,46.031l.753.038V41.827l-.682-.032a5.028,5.028,0,0,1-4.95-4.56A4.738,4.738,0,0,1,52.68,34a5,5,0,0,1,4.084-2.172l.682-.035V27.585H51.268c.15-.417.291-.822.4-1.248a3.477,3.477,0,0,0-.378-2.7,3.527,3.527,0,0,0-2.228-1.626,3.658,3.658,0,0,0-.831-.1,3.543,3.543,0,0,0-3.452,2.761,3.719,3.719,0,0,0,.2,2.215c.084.234.167.468.255.71H38.983Zm26.051-2.173c-.124.348-.243.687-.353,1.037a3.56,3.56,0,0,0,.527,3.194,3.515,3.515,0,0,0,2.857,1.437h.057a3.489,3.489,0,0,0,2.8-1.453,3.568,3.568,0,0,0,.513-3.182c-.111-.353-.231-.7-.361-1.052h6.317V19.955c.285.1.573.2.871.281a5.709,5.709,0,0,0,1.4.231,2.6,2.6,0,0,0,.4-.029,3.472,3.472,0,0,0,2.4-1.523,3.592,3.592,0,0,0,.465-2.867,3.453,3.453,0,0,0-3.39-2.618,3.76,3.76,0,0,0-1.207.2c-.324.109-.64.223-.967.342V7.624H71.081c.125-.355.246-.7.371-1.044a3.241,3.241,0,0,0,0-2.24A3.538,3.538,0,0,0,67,2.131a3.494,3.494,0,0,0-2.247,4.457c.116.355.239.7.368,1.062h-6.23v4.3l.687.029a4.988,4.988,0,0,1-.01,9.976L58.9,22v4.189ZM48.3,20.5a4.7,4.7,0,0,1,2.724.865,5,5,0,0,1,2.205,4.11l.036.679H57.47V19.975c.349.127.688.246,1.039.355A3.692,3.692,0,0,0,59.6,20.5a3.526,3.526,0,0,0,3.443-2.726,3.577,3.577,0,0,0-.527-2.849,3.42,3.42,0,0,0-2.4-1.459,2.943,2.943,0,0,0-.364-.022,5.986,5.986,0,0,0-1.412.227l-.228.055a6.577,6.577,0,0,0-.662.2V7.686l-.755.044A19.135,19.135,0,0,0,39.031,25.4l-.038.752h4.241l.031-.685a5.01,5.01,0,0,1,4.557-4.941c.16-.015.319-.022.474-.022" transform="translate(-37.545 -0.546)" fill="#ee9134"/>
</svg>
