<svg xmlns="http://www.w3.org/2000/svg" width="43.897" height="47.441" viewBox="0 0 43.897 47.441">
  <g id="Group_333" data-name="Group 333" transform="translate(-4698.18 -3100)">
    <path id="Path_357" data-name="Path 357" d="M140.727,0A3.647,3.647,0,0,1,143.1,1.875a3.146,3.146,0,0,1,2.273-.553,3.11,3.11,0,0,1,2.662,3.043c.019.848.054,1.7-.009,2.545a2.022,2.022,0,0,0,.767,1.9c.452-.23.948-.473,1.436-.729a.854.854,0,0,1,1.126.169q1.724,1.748,3.472,3.472A.851.851,0,0,1,155,12.846c-.508.97-.986,1.955-1.5,2.922a.607.607,0,0,0,.019.673,18.554,18.554,0,0,1,1.767,4.211.781.781,0,0,0,.425.451c1.031.364,2.073.7,3.118,1.023a.881.881,0,0,1,.7.951c-.009,1.606,0,3.212,0,4.817,0,.608-.159.812-.751,1-1.012.327-2.022.662-3.037.975a.611.611,0,0,0-.473.487,16.781,16.781,0,0,1-1.728,4.176.639.639,0,0,0-.025.714c.5.938.976,1.891,1.457,2.839.292.58.265.784-.183,1.235-1.133,1.137-2.275,2.268-3.4,3.409a.871.871,0,0,1-1.162.18c-.966-.513-1.942-1.011-2.929-1.482a.78.78,0,0,0-.618.015,18.252,18.252,0,0,1-4.225,1.734.617.617,0,0,0-.493.465c-.324,1.044-.681,2.08-1.005,3.126a.849.849,0,0,1-.916.672q-2.454-.015-4.91,0a.852.852,0,0,1-.911-.682c-.323-1.044-.657-2.087-1.021-3.118a.777.777,0,0,0-.441-.438,17.91,17.91,0,0,1-4.214-1.758.651.651,0,0,0-.72-.009c-.954.5-1.927.973-2.88,1.479a.867.867,0,0,1-1.158-.191q-1.708-1.732-3.44-3.44a.873.873,0,0,1-.166-1.164c.5-.954.977-1.924,1.482-2.878a.6.6,0,0,0-.006-.672,16.725,16.725,0,0,1-1.75-4.217.619.619,0,0,0-.473-.489c-1.044-.327-2.08-.682-3.126-1.005a.856.856,0,0,1-.668-.922q.009-2.433,0-4.864a.877.877,0,0,1,.7-.95c1.047-.32,2.089-.657,3.12-1.023a.781.781,0,0,0,.426-.449,18.523,18.523,0,0,1,1.766-4.211.6.6,0,0,0,.022-.673c-.5-.938-.975-1.891-1.456-2.841-.311-.614-.285-.791.189-1.267q1.686-1.689,3.376-3.373a.827.827,0,0,1,1.194-.188c.851.428,1.7.864,2.6,1.325.015-.191.033-.321.033-.451,0-1.111.01-2.222,0-3.335a3.106,3.106,0,0,1,1.6-2.976,3,3,0,0,1,3.358.195.622.622,0,0,0,.125.049A3.194,3.194,0,0,1,137.3,1.87c.112-.175.223-.352.337-.527A3.564,3.564,0,0,1,139.616,0Zm5.629,19.208c.063.1.109.177.16.253a10.65,10.65,0,0,1,1.731,7.581,10.777,10.777,0,1,1-19.518-7.681.625.625,0,0,0,.023-.813,7.581,7.581,0,0,1-1.158-4.452c.032-.863,0-1.729.012-2.593a.533.533,0,0,0-.34-.573c-.8-.387-1.6-.8-2.391-1.215a.374.374,0,0,0-.522.076q-1.231,1.257-2.489,2.489a.363.363,0,0,0-.07.515c.481.915.929,1.846,1.418,2.756a1.089,1.089,0,0,1-.039,1.207,15.748,15.748,0,0,0-1.975,4.763,1.052,1.052,0,0,1-.8.847c-.973.3-1.933.637-2.9.934a.45.45,0,0,0-.385.513c.019,1.126.02,2.254,0,3.38-.006.313.119.423.391.508.972.3,1.933.633,2.906.928a1.056,1.056,0,0,1,.794.854,15.591,15.591,0,0,0,1.952,4.723,1.151,1.151,0,0,1,.039,1.29c-.532.988-1.027,1.994-1.545,3.009.941.937,1.853,1.857,2.785,2.758a.481.481,0,0,0,.428.015c.941-.461,1.878-.932,2.8-1.424a1.019,1.019,0,0,1,1.126.023,15.931,15.931,0,0,0,4.846,2.007,1,1,0,0,1,.8.74c.3.972.631,1.933.927,2.906.095.307.218.442.57.433,1.111-.028,2.224-.022,3.335,0a.446.446,0,0,0,.518-.372c.3-.988.643-1.964.943-2.951a1.024,1.024,0,0,1,.831-.761,15.5,15.5,0,0,0,4.724-1.946,1.151,1.151,0,0,1,1.289-.048c.988.534,2,1.027,2.944,1.508,1.007-1,1.98-1.964,2.972-2.945-.506-.993-1.011-2.017-1.546-3.024a1.049,1.049,0,0,1,.041-1.165,15.759,15.759,0,0,0,1.977-4.762,1.087,1.087,0,0,1,.832-.874c.975-.294,1.934-.63,2.906-.931a.424.424,0,0,0,.359-.483c-.017-1.127-.016-2.254,0-3.382a.445.445,0,0,0-.369-.522c-1-.3-1.991-.652-2.992-.963a.961.961,0,0,1-.71-.765,16.037,16.037,0,0,0-2.007-4.849,1.057,1.057,0,0,1-.026-1.167c.486-.912.932-1.844,1.417-2.755a.385.385,0,0,0-.087-.551c-.612-.589-1.206-1.2-1.8-1.8-.934-.934-.935-.937-2.073-.279a.527.527,0,0,0-.24.288c-.2.823-.319,1.667-.569,2.473-.656,2.121-.813,4.42-2.231,6.267M129,12.619a20.707,20.707,0,0,0,.269,3.344,11.454,11.454,0,0,0,1.222,2.673,7.73,7.73,0,0,1,.972,3.806q-.026,4.839.007,9.678a.892.892,0,0,0,.281.614,9.293,9.293,0,0,0,11.636.032.757.757,0,0,0,.31-.663c-.01-3.057.015-6.113-.015-9.169a7.517,7.517,0,0,1,1.466-4.63,6.027,6.027,0,0,0,.912-1.748c.554-1.844,1.034-3.712,1.514-5.577a1.856,1.856,0,0,0-1.385-2.352q-2.786-.761-5.582-1.494a1.631,1.631,0,1,0-.807,3.15c1.13.307,2.263.607,3.392.916.64.175.825.49.656,1.135q-.41,1.566-.839,3.126c-.164.6-.364.736-.98.762a6.538,6.538,0,0,0-1.373.145,3.732,3.732,0,0,0-2.775,3.526c-.054.551-.351.855-.8.817a.756.756,0,0,1-.673-.89,5.864,5.864,0,0,1,.113-.916,5.25,5.25,0,0,1,4.777-4.163c.144-.013.374-.09.4-.188.208-.672.374-1.358.551-2.036-1.459-.591-3.1-.556-4.343-1.582a3.238,3.238,0,0,1-4.429.5A3.294,3.294,0,0,1,129,12.619m4.843-5.942h-.01c0,.817-.039,1.638.01,2.451a1.565,1.565,0,0,0,1.745,1.46,1.492,1.492,0,0,0,1.4-1.7c-.01-.138-.006-.278,0-.416.031-1.308.068-2.615.087-3.924a2.154,2.154,0,0,0-.116-.724,1.6,1.6,0,0,0-1.719-1.043,1.548,1.548,0,0,0-1.386,1.4c-.051.829-.012,1.664-.012,2.5M132.34,7.69c0-.74.01-1.479,0-2.22a1.632,1.632,0,1,0-3.257,0q-.017,2.175,0,4.347a1.633,1.633,0,1,0,3.257,0c.01-.708,0-1.418,0-2.128M141.8,5.913c0-1.052.055-2.052-.017-3.043a1.605,1.605,0,0,0-3.155-.14c-.08,1.047-.02,2.1-.02,3.22a3.787,3.787,0,0,1,3.193-.038M129.783,20.521a9.041,9.041,0,0,0,.179,10.2c.007-.086.016-.141.016-.2,0-2.854.006-5.707-.012-8.563a12.674,12.674,0,0,0-.183-1.438m15.736.263c-.364.761-.582,8.024-.3,9.9a8.934,8.934,0,0,0,.3-9.9m1.028-13.605c0-1.027.045-2-.013-2.964a1.582,1.582,0,0,0-1.689-1.437,1.6,1.6,0,0,0-1.535,1.6c-.015.54-.015,1.079,0,1.619,0,.127.087.335.175.361,1,.288,2.013.547,3.059.823" transform="translate(4582.552 3100)" fill="#ee9134"/>
  </g>
</svg>
