<svg xmlns="http://www.w3.org/2000/svg" width="48.418" height="47.314" viewBox="0 0 48.418 47.314">
  <g id="Group_334" data-name="Group 334" transform="translate(-4639.243 -3100.66)">
    <path id="Path_358" data-name="Path 358" d="M75.107,36.479a13.76,13.76,0,0,1,.871-1.091c.874-.908,1.774-1.79,2.666-2.682a1.586,1.586,0,0,1,2.445-.188,2.775,2.775,0,0,0,1.021-2.074c.025-.867,0-1.735.054-2.6a3.694,3.694,0,0,1,1.124-2.387q1.628-1.647,3.273-3.278a4,4,0,0,1,2.458-1.111,5.6,5.6,0,0,1-.4-2.8c0-1.151,0-2.3,0-3.45a3.986,3.986,0,0,1,1.183-2.9c.471-.486.961-.954,1.431-1.441a2.806,2.806,0,0,0,.8-2.263c-.111-.026-.212-.054-.316-.076a1.485,1.485,0,0,1-1.273-1.479c-.017-1.575-.022-3.152,0-4.727A1.478,1.478,0,0,1,91.969.459q6.6-.009,13.191,0a1.476,1.476,0,0,1,1.524,1.526c.012,1.4,0,2.8,0,4.208,0,1.319-.237,1.642-1.51,2.036a2.872,2.872,0,0,0,.608,2.336,4.556,4.556,0,0,1,1.078,3.139c-.019,2.442-.01,4.886,0,7.328a2.731,2.731,0,0,0,.189.692,13.759,13.759,0,0,1,1.6-.557,3.541,3.541,0,0,1,3.318.94c1.185,1.13,2.33,2.305,3.475,3.478A3.889,3.889,0,0,1,116.492,28c.79.1,1.1.337,1.044.8-.049.442-.385.657-1,.628a3.2,3.2,0,0,0,.988,3.072c1.117-.7,1.61-.643,2.531.279q1.453,1.455,2.906,2.91a1.513,1.513,0,0,1-.01,2.362q-4.54,4.553-9.083,9.1a1.512,1.512,0,0,1-2.426,0q-1.505-1.5-3.006-3.011a1.549,1.549,0,0,1-.175-2.323A3.05,3.05,0,0,0,106,40.562a4.032,4.032,0,0,1-2.593-1.215c-.716-.71-1.434-1.418-2.145-2.132-.4-.406-.447-.791-.138-1.116s.739-.284,1.153.125q1.06,1.045,2.112,2.1a2.631,2.631,0,0,0,1.7.82,4.476,4.476,0,0,1,3.134,1.613l7.272-7.245a4.144,4.144,0,0,1-1.369-2.589A13.458,13.458,0,0,1,115.1,28.8a3.3,3.3,0,0,0-1.135-2.727c-.991-.922-1.914-1.918-2.884-2.864a2.294,2.294,0,0,0-2.833-.384c.461.463.911.915,1.358,1.366.134.134.272.263.4.4a.708.708,0,0,1,.035,1.017.716.716,0,0,1-1.052-.036c-.564-.55-1.113-1.116-1.67-1.673-.119-.121-.244-.234-.426-.409-.013.218-.031.365-.031.512,0,1.354-.045,2.711.009,4.065a2.476,2.476,0,0,1-3.248,2.627.8.8,0,0,0-.185,0c0,.4-.028.788,0,1.177a2.5,2.5,0,0,1-3.454,2.654,2.566,2.566,0,0,1-1.709,1.8c-.124.041-.22.175-.32.273-.88.88-1.764,1.757-2.636,2.646a4.17,4.17,0,0,1-2.742,1.322,3.052,3.052,0,0,0-2.2,1.232,1.638,1.638,0,0,1-.32,2.484q-1.451,1.457-2.908,2.909a1.5,1.5,0,0,1-2.358,0q-2.961-2.958-5.913-5.923c-.1-.1-.26-.205-.268-.317a1.538,1.538,0,0,1,.077-.82.578.578,0,0,1,.836-.157,1.947,1.947,0,0,1,.393.335q2.825,2.823,5.645,5.654a4.7,4.7,0,0,1,.313.378L89.284,42.9c-3.1-3.082-6.243-6.214-9.344-9.3l-3.4,3.389c.3.279.671.611,1.024.961.388.384.423.813.115,1.117s-.73.289-1.111-.127c-.506-.551-.976-1.136-1.46-1.706ZM91.761,21.617v-.551c0-.646-.013-1.292.009-1.937a.7.7,0,1,1,1.408.016c.007.143,0,.284,0,.426q0,6.192,0,12.384a2.323,2.323,0,0,0,.084.7.983.983,0,0,0,1.891-.192,4.072,4.072,0,0,0,.022-.566q0-5.507,0-11.013c0-.751.239-1.113.726-1.1s.692.348.692,1.081q0,6.358,0,12.715a2.986,2.986,0,0,0,.061.7.982.982,0,0,0,1.9-.045,3.3,3.3,0,0,0,.047-.657Q98.6,27.238,98.587,20.9c0-.758.224-1.1.72-1.114s.721.337.721,1.1q0,5.531,0,11.06a4.259,4.259,0,0,0,.009.473.981.981,0,0,0,1.924.125,3.081,3.081,0,0,0,.051-.656q0-5.483,0-10.967a3.638,3.638,0,0,1,.019-.519.633.633,0,0,1,.671-.6.639.639,0,0,1,.7.569,2.791,2.791,0,0,1,.029.518q0,3.425,0,6.854a7.007,7.007,0,0,0,.023.8.941.941,0,0,0,.874.845.952.952,0,0,0,1.041-.7,2.121,2.121,0,0,0,.063-.56q.007-7.3.006-14.606a2.963,2.963,0,0,0-.7-2,4.158,4.158,0,0,1-1.008-2.781c0-.169,0-.339,0-.57h-.557q-2.315,0-4.631,0a1.9,1.9,0,0,1-.515-.049.639.639,0,0,1-.5-.705.645.645,0,0,1,.586-.64,3.4,3.4,0,0,1,.518-.02h6.051c.185,0,.369-.015.55-.023V1.914H91.887V6.733c.186.01.339.025.493.025.71,0,1.418,0,2.128,0,.125,0,.252,0,.378.006a.7.7,0,1,1,0,1.4c-.464.025-.929.006-1.437.006a4.745,4.745,0,0,1-1.868,3.972c-.291.263-.561.553-.833.838a2.3,2.3,0,0,0-.7,1.559c-.02,1.684-.031,3.372,0,5.056a2.232,2.232,0,0,0,1.709,2.02m-1.348,1.225a2.312,2.312,0,0,0-2.89.388c-1.078,1.06-2.14,2.137-3.207,3.207a2.638,2.638,0,0,0-.777,1.918c-.007.708,0,1.418-.012,2.126a4.081,4.081,0,0,1-1.062,2.662c-.121.14-.247.275-.33.367l7.27,7.243A4.739,4.739,0,0,1,92.831,39.1a1.619,1.619,0,0,0,.938-.4c.867-.858,1.68-1.77,2.461-2.6l-1.124-1.546a2.422,2.422,0,0,1-3.344-2.489q-.007-3.995,0-7.988c0-.163-.015-.327-.026-.583-.711.713-1.351,1.357-2,2-.407.4-.848.449-1.153.128s-.263-.714.14-1.116c.547-.544,1.1-1.078,1.689-1.651M118.732,33.59l-9.354,9.3,3.276,3.309,9.393-9.342c-1.114-1.1-2.243-2.211-3.315-3.268" transform="translate(4564.136 3100.207)" fill="#ee9134"/>
    <path id="Path_359" data-name="Path 359" d="M83.7,30.026a.752.752,0,0,1-1.5-.007.752.752,0,1,1,1.5.007" transform="translate(4567.357 3113.301)" fill="#ee9134"/>
    <path id="Path_360" data-name="Path 360" d="M102.716,10.358a.707.707,0,1,1-1.412.044.694.694,0,0,1,.657-.721.709.709,0,0,1,.755.678" transform="translate(4576.042 3104.399)" fill="#ee9134"/>
    <path id="Path_361" data-name="Path 361" d="M84.392,7.317a.708.708,0,1,1-.727-.689.694.694,0,0,1,.727.689" transform="translate(4567.712 3103.012)" fill="#ee9134"/>
    <path id="Path_362" data-name="Path 362" d="M80.626,11.777a.686.686,0,0,1-.723.7.705.705,0,0,1-.687-.7.744.744,0,0,1,.735-.714.706.706,0,0,1,.675.711" transform="translate(4566.003 3105.03)" fill="#ee9134"/>
    <path id="Path_363" data-name="Path 363" d="M90.837,29.787a.709.709,0,0,1,.705.729.689.689,0,0,1-.7.679.713.713,0,0,1-.714-.72.728.728,0,0,1,.707-.688" transform="translate(4570.963 3113.538)" fill="#ee9134"/>
    <path id="Path_364" data-name="Path 364" d="M81.657,10.116a.731.731,0,0,1-.74.7.716.716,0,0,1-.673-.717.7.7,0,0,1,.739-.692.7.7,0,0,1,.675.707" transform="translate(4566.47 3104.276)" fill="#ee9134"/>
    <path id="Path_365" data-name="Path 365" d="M103.73,12.165a.7.7,0,1,1-.719-.723.724.724,0,0,1,.719.723" transform="translate(4576.505 3105.201)" fill="#ee9134"/>
    <path id="Path_367" data-name="Path 367" d="M92.074,30.417a.708.708,0,1,1,1.415.032.708.708,0,0,1-1.415-.032" transform="translate(4571.847 3113.509)" fill="#ee9134"/>
    <path id="Path_368" data-name="Path 368" d="M99.922,7.411a.708.708,0,1,1-.753-.691.732.732,0,0,1,.753.691" transform="translate(4574.771 3103.054)" fill="#ee9134"/>
    <path id="Path_369" data-name="Path 369" d="M101.428,8.777a.676.676,0,0,1-.657.716.72.72,0,0,1-.755-.681.731.731,0,0,1,.671-.726.707.707,0,0,1,.742.691" transform="translate(4575.457 3103.675)" fill="#ee9134"/>
    <path id="Path_370" data-name="Path 370" d="M104.451,14.081a.7.7,0,0,1-.753.676.681.681,0,0,1-.652-.723.7.7,0,0,1,.7-.688.73.73,0,0,1,.71.735" transform="translate(4576.833 3106.066)" fill="#ee9134"/>
    <path id="Path_372" data-name="Path 372" d="M104.163,15.345a.719.719,0,0,1,.7.732.706.706,0,1,1-.7-.732" transform="translate(4577.018 3106.974)" fill="#ee9134"/>
    <path id="Path_375" data-name="Path 375" d="M97.236,29.459a.728.728,0,0,1-.755.687.707.707,0,0,1,.09-1.411.717.717,0,0,1,.665.724" transform="translate(4573.553 3113.059)" fill="#ee9134"/>
    <path id="Path_376" data-name="Path 376" d="M95.392,30.091a.71.71,0,0,1-.737.7.73.73,0,0,1-.672-.723.7.7,0,0,1,.748-.684.681.681,0,0,1,.662.711" transform="translate(4572.715 3113.353)" fill="#ee9134"/>
    <path id="Path_378" data-name="Path 378" d="M87.74,29.762a.73.73,0,0,1-.692.7.716.716,0,0,1-.713-.721.68.68,0,0,1,.684-.689.705.705,0,0,1,.721.71" transform="translate(4569.239 3113.204)" fill="#ee9134"/>
    <path id="Path_379" data-name="Path 379" d="M88.912,29.57a.68.68,0,0,1,.7.726.708.708,0,0,1-.705.681.731.731,0,0,1-.7-.739.7.7,0,0,1,.714-.668" transform="translate(4570.085 3113.44)" fill="#ee9134"/>
    <path id="Path_380" data-name="Path 380" d="M98.206,6.3a.7.7,0,0,1-.666.713.686.686,0,0,1-.74-.682.712.712,0,0,1,.657-.726.738.738,0,0,1,.749.7" transform="translate(4573.995 3102.549)" fill="#ee9134"/>
    <path id="Path_381" data-name="Path 381" d="M82.911,8.627a.711.711,0,0,1-.737.7.721.721,0,0,1-.668-.723.7.7,0,0,1,.746-.684.674.674,0,0,1,.659.711" transform="translate(4567.044 3103.598)" fill="#ee9134"/>
    <path id="Path_382" data-name="Path 382" d="M104.94,18.1a.68.68,0,0,1-.726.7.712.712,0,0,1-.678-.708.721.721,0,0,1,.739-.7.694.694,0,0,1,.665.714" transform="translate(4577.057 3107.901)" fill="#ee9134"/>
    <path id="Path_383" data-name="Path 383" d="M86.037,6.264a.7.7,0,1,1-1.4.022.7.7,0,0,1,1.4-.022" transform="translate(4568.466 3102.536)" fill="#ee9134"/>
    <path id="Path_384" data-name="Path 384" d="M88.437,4.1a.756.756,0,0,1-.724-.777.732.732,0,0,1,.765-.726.753.753,0,0,1,.735.765.786.786,0,0,1-.775.737" transform="translate(4569.865 3101.18)" fill="#ee9134"/>
    <path id="Path_385" data-name="Path 385" d="M106.205,25.552a.751.751,0,0,1-.729.769.768.768,0,0,1-.761-.743.737.737,0,0,1,.735-.756.726.726,0,0,1,.755.73" transform="translate(4577.593 3111.282)" fill="#ee9134"/>
  </g>
</svg>
