<svg xmlns="http://www.w3.org/2000/svg" width="48.401" height="45.804" viewBox="0 0 48.401 45.804">
  <g id="Group_330" data-name="Group 330" transform="translate(-4870.987 -3101.399)">
    <path id="Path_326" data-name="Path 326" d="M234.437,26.558c.048-.163.1-.326.145-.489a3.583,3.583,0,0,1,3.389-2.615c3.42-.023,6.839-.013,10.259-.006a1.263,1.263,0,0,1,1.354,1.271c.009.108.02.215.036.377.543,0,1.075.023,1.6-.016a.567.567,0,0,0,.406-.326c.705-2.416,2.115-4.491,3.223-6.711.956-1.916,1.962-3.8,2.967-5.694a3.225,3.225,0,0,0,.377-1.865c-.177-1.961-.349-3.921-.528-5.882a1.418,1.418,0,0,1,1.075-1.7,5.924,5.924,0,0,1,7.383,2.845,11.017,11.017,0,0,1,1.348,6.65c-.112,1.459-.319,2.91-.481,4.365-.017.156-.029.313-.051.548h.566q5.105.009,10.211.02a4.682,4.682,0,0,1,4.787,3.753,4.613,4.613,0,0,1-.8,3.766c-.09.127-.186.249-.291.391a4.553,4.553,0,0,1,1.359,2.545,4.261,4.261,0,0,1-1.568,4.163.618.618,0,0,0-.231.816,4.4,4.4,0,0,1-2.43,5.417c-.141.063-.284.124-.3.129a15.2,15.2,0,0,1-.137,2.455,4.42,4.42,0,0,1-4.126,3.367c-.739.026-1.481.016-2.221.009a.714.714,0,1,1-.01-1.417c.662-.009,1.324,0,1.985,0a3.04,3.04,0,0,0,2.894-4.132c-.3-.832-.033-1.312.841-1.54a3,3,0,0,0,2-4.246c-.4-.857-.294-1.2.519-1.713a3.014,3.014,0,0,0,.378-4.854c-.783-.678-.8-1.12-.1-1.885a3.184,3.184,0,0,0,.676-3.507,3.1,3.1,0,0,0-2.851-2.065c-.58-.041-1.165-.029-1.748-.031l-9.88-.01c-.929,0-1.121-.209-1.018-1.129.205-1.83.468-3.655.611-5.491a9.307,9.307,0,0,0-1.185-5.687,4.443,4.443,0,0,0-3.165-2.4,10.636,10.636,0,0,0-2.282.143c-.3.025-.361.207-.33.5.16,1.552.3,3.1.442,4.657.044.486.089.973.1,1.462a4.238,4.238,0,0,1-.495,2.089c-1.722,3.273-3.444,6.547-5.136,9.835a17.326,17.326,0,0,0-.945,2.307,1.98,1.98,0,0,1-1.983,1.508c-.471.012-.942,0-1.453,0V42.728h18.409c.157,0,.316-.009.473,0a.7.7,0,0,1,.007,1.409c-.156.015-.314.007-.473.007H249.587c0,.212,0,.394,0,.577a1.254,1.254,0,0,1-1.342,1.324c-1.529.012-3.057,0-4.586,0q-2.625,0-5.248,0a3.627,3.627,0,0,1-3.915-2.972c-.007-.028-.038-.048-.057-.071V32.232c.015-.006.036-.006.044-.016a.73.73,0,0,1,.924-.358c.409.156.457.508.457.895q-.009,4.723,0,9.448a2.213,2.213,0,0,0,2.433,2.428q4.678,0,9.354,0h.495V24.864h-1.568q-4.134,0-8.269,0a2.235,2.235,0,0,0-2.445,2.429c0,.551-.012,1.1,0,1.654.01.41-.063.774-.5.911a.75.75,0,0,1-.924-.463Z" transform="translate(4636.55 3101.147)" fill="#ee9134"/>
    <path id="Path_327" data-name="Path 327" d="M234.437,3.628c.055-.143.118-.282.166-.428a3.173,3.173,0,0,1,4.718-1.744.545.545,0,0,0,.7,0,3.189,3.189,0,0,1,4.083.57,3.018,3.018,0,0,1,.067,4.1c-1.2,1.313-2.508,2.525-3.792,3.757a.938.938,0,0,1-1.37,0c-1.3-1.236-2.6-2.478-3.846-3.77a5.677,5.677,0,0,1-.726-1.35Zm5.249,4.983c1.111-1.094,2.208-2.134,3.257-3.219A1.68,1.68,0,0,0,243,2.937a1.827,1.827,0,0,0-2.483-.112,1.638,1.638,0,0,1-.94.321,1.854,1.854,0,0,1-.867-.407,1.782,1.782,0,0,0-2.362.22,1.645,1.645,0,0,0-.026,2.339c1.085,1.119,2.217,2.19,3.361,3.313" transform="translate(4636.55 3100.438)" fill="#ee9134"/>
    <path id="Path_328" data-name="Path 328" d="M246.419,8.287a3.2,3.2,0,0,1,3.694-.246,3.124,3.124,0,0,1,.765,4.774c-.509.6-1.1,1.127-1.66,1.678q-.977.962-1.972,1.905a1.039,1.039,0,0,1-1.591.022c-1.133-1.073-2.268-2.144-3.364-3.254a3.151,3.151,0,0,1-.365-4.411,3.239,3.239,0,0,1,4.493-.468m.016,6.939c1.113-1.092,2.212-2.131,3.261-3.217a1.694,1.694,0,0,0,.052-2.46,1.849,1.849,0,0,0-2.489-.108,1.866,1.866,0,0,1-1.031.321c-.259,0-.531-.24-.771-.407a1.8,1.8,0,0,0-2.365.224,1.666,1.666,0,0,0-.013,2.343c1.088,1.116,2.22,2.189,3.356,3.3" transform="translate(4639.619 3103.439)" fill="#ee9134"/>
    <path id="Path_329" data-name="Path 329" d="M264.3,10.946c1.1-1.081,2.186-2.093,3.2-3.169a3.089,3.089,0,0,0,.579-1.245c.134-.454.391-.759.783-.726a.728.728,0,0,1,.644.835,2.781,2.781,0,0,1-.82,1.959c-1.2,1.222-2.438,2.42-3.678,3.607a.979.979,0,0,1-1.444-.012c-1.233-1.175-2.47-2.345-3.657-3.562a3.077,3.077,0,0,1-.137-4.134,3.17,3.17,0,0,1,4.132-.711.569.569,0,0,0,.742,0,3,3,0,0,1,2.124-.455c.544.07.813.384.75.838-.06.426-.352.62-.921.569a1.936,1.936,0,0,0-1.455.423,1.2,1.2,0,0,1-1.738,0,1.754,1.754,0,0,0-2.029-.192,1.7,1.7,0,0,0-.876,1.795,1.837,1.837,0,0,0,.388.833,11.2,11.2,0,0,0,.989,1.014c.79.767,1.585,1.527,2.422,2.333" transform="translate(4647.734 3101.503)" fill="#ee9134"/>
    <path id="Path_330" data-name="Path 330" d="M242.084,31.244a2.532,2.532,0,1,1,2.524-2.529,2.54,2.54,0,0,1-2.524,2.529m-.042-3.639a1.108,1.108,0,1,0,1.142,1.073,1.117,1.117,0,0,0-1.142-1.073" transform="translate(4638.858 3111.898)" fill="#ee9134"/>
  </g>
</svg>
